# xmcd
#
# Track frame offsets: 
#        150
#        17815
#        43610
#        59650
#        75807
#        94815
#        114050
#        138495
#        153912
#        171920
#        195030
#        213790
#        234232
#        257075
#        278005
#        296437
#        317930
#
# Disc length: 4545 seconds
#
# Revision: 4
# Processed by: cddbd v1.5.2PL0 Copyright (c) Steve Scherf et al.
# Submitted via: ExactAudioCopy v0.99pb5
#
DISCID=d811bf11
DTITLE=Various Artist - The Power of Love
DYEAR=1996
DGENRE=Pop
TTITLE0=Change The World (Performed by Eric Clapton)
TTITLE1=The Power Of Love (Performed by Celine Dion)
TTITLE2=Don't Know Much (Performed by Linda Ronstadt and Aaron Neville)
TTITLE3=Without You (Performed by Mariah Carey)
TTITLE4=Take My Breath Away (Performed by Berlin)
TTITLE5=How Am I Supposed To Live Without You (Performed by Michael Bo
TTITLE5=lton)
TTITLE6=Everytime You Go Away (Performed by Paul Young)
TTITLE7=Against All Odds (Performed by Phil Collins)
TTITLE8=Have I Told You Lately (Performed by Rod Stewart)
TTITLE9=Hard To Say I'm Sorry (Performed by Chicago)
TTITLE10=Stars (Performed by Simply Red)
TTITLE11=Total Ecllipse Of The Heart (Performed by Bonnie Tyler)
TTITLE12=Careless Whisper (Performed by George Michael)
TTITLE13=From A Distance (Performed by Bette Midler)
TTITLE14=Sometimes When We Touch (Performed by Dan Hill)
TTITLE15=Killing Me Softly With His Song (Performed by Roberta Flack)
TTITLE16=I Want To Know What Love Is (Performed by Foreigner)
EXTD=YEAR: 1996
EXTT0=
EXTT1=
EXTT2=
EXTT3=
EXTT4=
EXTT5=
EXTT6=
EXTT7=
EXTT8=
EXTT9=
EXTT10=
EXTT11=
EXTT12=
EXTT13=
EXTT14=
EXTT15=
EXTT16=
PLAYORDER=
